<?xml version="1.0"?>
<svg width="700" height="160" xmlns="http://www.w3.org/2000/svg" xmlns:svg="http://www.w3.org/2000/svg">
 <!-- Created with SVG-edit - https://github.com/SVG-Edit/svgedit-->
 <g class="layer">
  <title>Layer 1</title>
  <ellipse cx="75.04" cy="80.92" fill="#ff0000" fill-opacity="0.01" id="svg_1" rx="62" ry="62" stroke="#000000" stroke-width="5"/>
  <line fill="none" fill-opacity="0.01" id="svg_2" stroke="#000000" stroke-width="5" x1="12.04" x2="135.05" y1="76.92" y2="76.92"/>
  <ellipse cx="35.54" cy="78.42" fill="#000000" id="svg_3" rx="7.5" ry="7.5" stroke="#000000" stroke-width="5"/>
  <ellipse cx="221.04" cy="80.42" fill="#ff0000" fill-opacity="0.01" id="svg_6" rx="62" ry="62" stroke="#000000" stroke-width="5"/>
  <ellipse cx="221.54" cy="80.92" fill="#000000" id="svg_4" rx="7.5" ry="7.5" stroke="#000000" stroke-width="5"/>
  <line fill="none" id="svg_9" stroke="#000000" stroke-width="5" x1="182.54" x2="260.54" y1="36.92" y2="122.92"/>
  <path d="m306.73,67.78l33.66,0l0,-33.66l31.68,0l0,33.66l33.66,0l0,31.68l-33.66,0l0,33.66l-31.68,0l0,-33.66l-33.66,0z" fill="#000000" id="svg_10" stroke="#000000" stroke-width="5"/>
  <ellipse cx="482.46" cy="81.42" fill="#ff0000" fill-opacity="0.01" id="svg_13" rx="62" ry="62" stroke="#000000" stroke-width="5"/>
  <ellipse cx="481.27" cy="80.62" fill="#000000" id="svg_12" rx="7.5" ry="7.5" stroke="#000000" stroke-width="5"/>
  <line fill="none" id="svg_11" stroke="#000000" stroke-width="5" transform="rotate(-100.362 482.192 82.0769)" x1="442.2" x2="522.19" y1="38.11" y2="126.04"/>
  <ellipse cx="617.46" cy="79.19" fill="#ff0000" fill-opacity="0.01" id="svg_16" rx="62" ry="62" stroke="#000000" stroke-width="5" transform="matrix(1 0 0 1 0 0)"/>
  <ellipse cx="648.96" cy="79.38" fill="#000000" id="svg_15" rx="7.5" ry="7.5" stroke="#000000" stroke-width="5"/>
  <line fill="none" id="svg_14" stroke="#000000" stroke-width="5" x1="557.61" x2="677.54" y1="79.58" y2="77.8"/>
 </g>
</svg>